<?xml version="1.0" encoding="UTF-8" standalone="no"?>
<!-- Generator: Adobe Illustrator 21.1.0, SVG Export Plug-In . SVG Version: 6.00 Build 0)  -->

<svg
   xmlns:dc="http://purl.org/dc/elements/1.1/"
   xmlns:cc="http://creativecommons.org/ns#"
   xmlns:rdf="http://www.w3.org/1999/02/22-rdf-syntax-ns#"
   xmlns:svg="http://www.w3.org/2000/svg"
   xmlns="http://www.w3.org/2000/svg"
   xmlns:sodipodi="http://sodipodi.sourceforge.net/DTD/sodipodi-0.dtd"
   xmlns:inkscape="http://www.inkscape.org/namespaces/inkscape"
   version="1.1"
   id="Layer_1"
   x="0px"
   y="0px"
   width="215"
   height="215"
   viewBox="0 0 215 215"
   xml:space="preserve"
   sodipodi:docname="QGCustomLogoWhite.svg"
   inkscape:version="0.92.4 (5da689c313, 2019-01-14)"><metadata
   id="metadata4554"><rdf:RDF><cc:Work
       rdf:about=""><dc:format>image/svg+xml</dc:format><dc:type
         rdf:resource="http://purl.org/dc/dcmitype/StillImage" /><dc:title /></cc:Work></rdf:RDF></metadata><defs
   id="defs4552" /><sodipodi:namedview
   pagecolor="#ffffff"
   bordercolor="#666666"
   borderopacity="1"
   objecttolerance="10"
   gridtolerance="10"
   guidetolerance="10"
   inkscape:pageopacity="0"
   inkscape:pageshadow="2"
   inkscape:window-width="1920"
   inkscape:window-height="1012"
   id="namedview4550"
   showgrid="false"
   inkscape:zoom="2.888889"
   inkscape:cx="33.760285"
   inkscape:cy="-3.9192244"
   inkscape:window-x="-8"
   inkscape:window-y="-8"
   inkscape:window-maximized="1"
   inkscape:current-layer="layer1"
   inkscape:pagecheckerboard="true" />
<style
   type="text/css"
   id="style4537">
	.st0{fill:#FFFFFF;}
	.st1{fill:#4B2C6D;stroke:#FFFFFF;stroke-width:3;stroke-miterlimit:10;}
	.st2{fill:#5ECBF1;}
</style>


<g
   id="g4625"
   transform="matrix(2.9548841,0,0,2.6918419,-13.542881,-22.329047)"><g
     id="g4628"><path
       style="fill:#5ecbf1"
       inkscape:connector-curvature="0"
       class="st2"
       d="m 34.7,12.607 c -0.034,0 -0.137,0 -0.137,0 -11.423,0.992 -20.52,10.123 -21.546,21.546 0,0 0,0.103 0,0.137 0,0 0,0.068 0,0.103 0,0.752 0.616,1.334 1.334,1.334 0.718,0 1.3,-0.581 1.334,-1.265 v 0 C 16.54,24.305 24.645,16.199 34.769,15.31 v 0 c 0.684,-0.034 1.231,-0.581 1.265,-1.265 0,-0.034 0,-0.034 0,-0.068 0.034,-0.788 -0.581,-1.37 -1.334,-1.37 z"
       id="path4543" /></g></g>
<path
   class="st2"
   d="m 88.991598,25.876457 c -0.100474,0 -0.304352,0 -0.404819,0 H 88.486306 C 63.12158,28.546765 43.010638,47.327745 40.584679,69.696951 c 0,0 0,0.27726 0,0.460305 0,2.024265 1.820209,3.590917 3.941815,3.590917 2.121607,0 3.841351,-1.563961 3.941817,-3.40518 0,0 0,0 0,-0.09153 C 50.994736,50.735614 67.87008,35.268289 89.195479,32.966764 v 0 c 2.02114,-0.09153 3.637462,-1.563959 3.737928,-3.40518 0,-0.09153 0,-0.09153 0,-0.183044 0.100474,-1.935435 -1.716788,-3.502087 -3.941817,-3.502087 z"
   id="path4545"
   inkscape:connector-curvature="0"
   style="fill:#5ecbf1;stroke-width:2.82029796" />
<path
   class="st2"
   d="m 88.991598,40.237435 c -0.200931,0 -0.505285,0 -0.706217,0.09153 C 72.015789,42.813535 59.179772,54.598419 56.452415,69.4197 v 0.09153 c 0,0.183045 -0.100474,0.551829 -0.100474,0.643351 0,2.024265 1.716789,3.590916 3.941815,3.590916 0.200933,0 0.304352,0 0.505285,0 1.82021,-0.183045 3.336065,-1.563959 3.43653,-3.222135 0,-0.09152 0,-0.277259 0,-0.368781 2.325495,-11.507625 12.327777,-20.622201 25.063328,-22.737988 0,0 0.100473,0 0.200932,0 1.920674,-0.183047 3.43653,-1.658176 3.43653,-3.405181 0,-0.09153 0,-0.09153 0,-0.183045 0.09752,-1.932743 -1.719742,-3.590917 -3.944771,-3.590917 z"
   id="path4547"
   inkscape:connector-curvature="0"
   style="fill:#5ecbf1;stroke-width:2.82029796" />
<g
   inkscape:groupmode="layer"
   id="layer1"
   inkscape:label="Layer 1"
   style="display:inline"
   transform="translate(0,143)"><path
     style="display:inline;opacity:1;fill:#88aa00;stroke:#000000;stroke-width:2.51109838px;stroke-linecap:butt;stroke-linejoin:miter;stroke-opacity:0"
     d="m 31.461524,-25.558801 25.72756,7.048197 26.15637,12.7748579 L 42.181343,53.73341 67.051322,-2.6521633 Z"
     id="path4567"
     inkscape:connector-curvature="0" /></g><g
   inkscape:groupmode="layer"
   id="layer2"
   inkscape:label="Layer 2"
   style="display:inline;opacity:0.70999995"
   transform="translate(0,143)"><path
     sodipodi:nodetypes="cccccc"
     style="display:inline;opacity:1;fill:#ffffff;stroke:#000000;stroke-width:2.51109838px;stroke-linecap:butt;stroke-linejoin:miter;stroke-opacity:0.05681817;fill-opacity:1"
     d="M 39.030672,-34.513439 62.185308,-22.982671 84.303119,-5.7357488 28.479884,45.333508 67.724144,-5.6057892 Z"
     id="path4567-5"
     inkscape:connector-curvature="0" /></g><text
   xml:space="preserve"
   style="font-style:normal;font-variant:normal;font-weight:normal;font-stretch:normal;font-size:40px;line-height:1.25;font-family:'Siemens Sans Black';-inkscape-font-specification:'Siemens Sans Black, ';letter-spacing:0px;word-spacing:0px;fill:#000000;fill-opacity:1;stroke:none"
   x="-83.25"
   y="202.01923"
   id="text4610"><tspan
     sodipodi:role="line"
     id="tspan4608"
     x="-83.25"
     y="237.40985" /></text>




<text
   xml:space="preserve"
   style="font-style:italic;font-variant:normal;font-weight:bold;font-stretch:normal;font-size:45.66807556px;line-height:1.25;font-family:sans-serif;-inkscape-font-specification:'sans-serif Bold Italic';letter-spacing:0px;word-spacing:0px;fill:#ffffff;fill-opacity:1;stroke:none;stroke-width:1.14170182"
   x="75.570923"
   y="174.35609"
   id="text4618"
   transform="scale(0.99582246,1.0041951)"><tspan
     sodipodi:role="line"
     id="tspan4616"
     x="75.570923"
     y="174.35609"
     style="fill:#ffffff;fill-opacity:1;stroke-width:1.14170182">APM</tspan></text>




<text
   xml:space="preserve"
   style="font-style:normal;font-weight:normal;font-size:8.42550468px;line-height:1.25;font-family:sans-serif;letter-spacing:0px;word-spacing:0px;fill:#000000;fill-opacity:1;stroke:none;stroke-width:1.05318809"
   x="68.266327"
   y="181.54059"
   id="text4622"
   transform="scale(0.96717047,1.0339439)"><tspan
     sodipodi:role="line"
     id="tspan4620"
     x="68.266327"
     y="181.54059"
     style="stroke-width:1.05318809">MULTIPLATFORM AUTOPILOT</tspan></text>




<path
   class="st0"
   d="m 153.04154,113.10638 -9.56005,-8.77904 c 5.62859,-7.485328 8.93267,-16.556733 8.93267,-26.339674 h -0.0414 c 0,-24.067085 -19.9015,-43.862378 -45.40528,-46.242781 V 51.85584 c 14.40158,2.387303 25.09524,14.567896 23.6085,28.762344 -0.34187,3.266155 -1.35526,6.368441 -2.90023,9.193877 l -11.12563,-10.21676 -15.4084,14.1496 10.15456,9.324969 c -2.10286,0.67703 -4.3109,1.13845 -6.59314,1.34286 C 89.286323,105.79354 76.044645,96.047682 73.371704,82.886467 H 51.45846 c 2.667307,23.347793 24.186089,41.545803 50.33791,41.545803 v 0.038 c 9.40602,0 18.20625,-2.36746 25.74984,-6.47797 l 10.08693,9.26288 z"
   id="path3796-1"
   inkscape:connector-curvature="0"
   style="fill:#ffffff;fill-opacity:1;stroke-width:0.90001154" /><path
   class="st2"
   d="m 211.30768,150.23077 c 0,33 -27,60 -60,60 H 63.307684 c -32.999996,0 -59.9999963,-27 -59.9999963,-60 V 62.230773 c 0,-33 27.0000003,-59.9999999 59.9999963,-59.9999999 h 87.999996 c 33,0 60,26.9999999 60,59.9999999 z"
   id="path12"
   inkscape:connector-curvature="0"
   style="fill:none;stroke:#ffffff;stroke-width:8;stroke-miterlimit:10" /></svg>