<?xml version="1.0" encoding="UTF-8" standalone="no"?>
<!-- Generator: Adobe Illustrator 21.1.0, SVG Export Plug-In . SVG Version: 6.00 Build 0)  -->

<svg
   xmlns:dc="http://purl.org/dc/elements/1.1/"
   xmlns:cc="http://creativecommons.org/ns#"
   xmlns:rdf="http://www.w3.org/1999/02/22-rdf-syntax-ns#"
   xmlns:svg="http://www.w3.org/2000/svg"
   xmlns="http://www.w3.org/2000/svg"
   xmlns:sodipodi="http://sodipodi.sourceforge.net/DTD/sodipodi-0.dtd"
   xmlns:inkscape="http://www.inkscape.org/namespaces/inkscape"
   version="1.1"
   id="Layer_1"
   x="0px"
   y="0px"
   width="215"
   height="215"
   viewBox="0 0 215 215"
   xml:space="preserve"
   sodipodi:docname="QGCustomLogoBlack.svg"
   inkscape:version="0.92.4 (5da689c313, 2019-01-14)"><metadata
   id="metadata4554"><rdf:RDF><cc:Work
       rdf:about=""><dc:format>image/svg+xml</dc:format><dc:type
         rdf:resource="http://purl.org/dc/dcmitype/StillImage" /><dc:title></dc:title></cc:Work></rdf:RDF></metadata><defs
   id="defs4552" /><sodipodi:namedview
   pagecolor="#ffffff"
   bordercolor="#666666"
   borderopacity="1"
   objecttolerance="10"
   gridtolerance="10"
   guidetolerance="10"
   inkscape:pageopacity="0"
   inkscape:pageshadow="2"
   inkscape:window-width="1920"
   inkscape:window-height="1012"
   id="namedview4550"
   showgrid="false"
   inkscape:zoom="1.4444445"
   inkscape:cx="-114.87241"
   inkscape:cy="54.902148"
   inkscape:window-x="-8"
   inkscape:window-y="-8"
   inkscape:window-maximized="1"
   inkscape:current-layer="Layer_1" />
<style
   type="text/css"
   id="style4537">
	.st0{fill:#FFFFFF;}
	.st1{fill:#4B2C6D;stroke:#FFFFFF;stroke-width:3;stroke-miterlimit:10;}
	.st2{fill:#5ECBF1;}
</style>


<g
   id="g4625"
   transform="matrix(3.0751847,0,0,2.8116183,-25.108833,-26.608299)"><g
     id="g4628"><path
       style="fill:#5ecbf1"
       inkscape:connector-curvature="0"
       class="st2"
       d="m 34.7,12.607 c -0.034,0 -0.137,0 -0.137,0 -11.423,0.992 -20.52,10.123 -21.546,21.546 0,0 0,0.103 0,0.137 0,0 0,0.068 0,0.103 0,0.752 0.616,1.334 1.334,1.334 0.718,0 1.3,-0.581 1.334,-1.265 v 0 C 16.54,24.305 24.645,16.199 34.769,15.31 v 0 c 0.684,-0.034 1.231,-0.581 1.265,-1.265 0,-0.034 0,-0.034 0,-0.068 0.034,-0.788 -0.581,-1.37 -1.334,-1.37 z"
       id="path4543" /></g></g>
<path
   class="st2"
   d="m 81.600075,23.742161 c -0.104564,0 -0.316743,0 -0.4213,0 h -0.104564 c -26.397386,2.789126 -47.327093,22.405786 -49.851819,45.770334 0,0 0,0.289597 0,0.480787 0,2.114337 1.894314,3.750699 4.102296,3.750699 2.207983,0 3.997742,-1.633551 4.102298,-3.556697 0,0 0,0 0,-0.0956 2.629282,-20.384231 20.191662,-36.539791 42.38527,-38.943725 v 0 c 2.103426,-0.0956 3.785553,-1.633549 3.890109,-3.556697 0,-0.0956 0,-0.0956 0,-0.191189 0.104564,-2.021554 -1.786683,-3.657916 -4.102298,-3.657916 z"
   id="path4545"
   inkscape:connector-curvature="0"
   style="fill:#5ecbf1;stroke-width:2.94044995" />
<path
   class="st2"
   d="m 81.600075,38.742146 c -0.209111,0 -0.525856,0 -0.734969,0.0956 C 63.933139,41.43287 50.574537,53.742135 47.736142,69.222905 v 0.0956 c 0,0.19119 -0.104564,0.576383 -0.104564,0.671978 0,2.114337 1.786683,3.750697 4.102296,3.750697 0.209113,0 0.316743,0 0.525856,0 1.894315,-0.191189 3.471884,-1.633549 3.57644,-3.365507 0,-0.09559 0,-0.289596 0,-0.38519 2.420171,-12.019669 12.829671,-21.539808 26.083717,-23.74974 0,0 0.104564,0 0.209112,0 1.99887,-0.191191 3.57644,-1.731958 3.57644,-3.556698 0,-0.0956 0,-0.0956 0,-0.19119 0.101492,-2.018742 -1.789757,-3.750698 -4.105372,-3.750698 z"
   id="path4547"
   inkscape:connector-curvature="0"
   style="fill:#5ecbf1;stroke-width:2.94044995" />
<g
   inkscape:groupmode="layer"
   id="layer1"
   inkscape:label="Layer 1"
   style="display:inline"
   transform="translate(0,143)"><path
     style="display:inline;opacity:0.70999995;fill:#88aa00;stroke:#000000;stroke-width:2.32130456px;stroke-linecap:butt;stroke-linejoin:miter;stroke-opacity:0"
     d="M 31.210284,-18.165471 55.440643,-11.770279 80.074857,-0.17899203 41.306269,53.780438 64.728953,2.6189016 Z"
     id="path4567"
     inkscape:connector-curvature="0" /></g><g
   inkscape:groupmode="layer"
   id="layer2"
   inkscape:label="Layer 2"
   style="display:inline;opacity:0.70999995"
   transform="translate(0,143)"><path
     sodipodi:nodetypes="cccccc"
     style="display:inline;opacity:0.70999995;fill:#445016;stroke:#000000;stroke-width:2.32130456px;stroke-linecap:butt;stroke-linejoin:miter;stroke-opacity:0.05681817"
     d="M 38.33895,-26.290476 60.146114,-15.828016 80.976791,-0.17899446 28.402159,46.158774 65.362621,-0.06107543 Z"
     id="path4567-5"
     inkscape:connector-curvature="0" /></g><text
   xml:space="preserve"
   style="font-style:normal;font-variant:normal;font-weight:normal;font-stretch:normal;font-size:40px;line-height:1.25;font-family:'Siemens Sans Black';-inkscape-font-specification:'Siemens Sans Black, ';letter-spacing:0px;word-spacing:0px;fill:#000000;fill-opacity:1;stroke:none"
   x="-83.25"
   y="202.01923"
   id="text4610"><tspan
     sodipodi:role="line"
     id="tspan4608"
     x="-83.25"
     y="237.40985" /></text>

<text
   xml:space="preserve"
   style="font-style:italic;font-variant:normal;font-weight:bold;font-stretch:normal;font-size:40.29082489px;line-height:1.25;font-family:sans-serif;-inkscape-font-specification:'sans-serif Bold Italic';letter-spacing:0px;word-spacing:0px;fill:#000000;fill-opacity:1;stroke:none;stroke-width:1.00727057"
   x="71.297829"
   y="184.46814"
   id="text4618"
   transform="scale(1.0535767,0.94914779)"><tspan
     sodipodi:role="line"
     id="tspan4616"
     x="71.297829"
     y="184.46814"
     style="stroke-width:1.00727057">APM</tspan></text>

<text
   xml:space="preserve"
   style="font-style:normal;font-weight:normal;font-size:8.42550468px;line-height:1.25;font-family:sans-serif;letter-spacing:0px;word-spacing:0px;fill:#000000;fill-opacity:1;stroke:none;stroke-width:1.05318809"
   x="68.266327"
   y="181.54059"
   id="text4622"
   transform="scale(0.96717047,1.0339439)"><tspan
     sodipodi:role="line"
     id="tspan4620"
     x="68.266327"
     y="181.54059"
     style="stroke-width:1.05318809">MULTIPLATFORM AUTOPILOT</tspan></text>

<g
   id="g3871"
   transform="translate(-3.6538485,-2.5769221)"><path
     class="st2"
     d="m 211.5,151.5 c 0,33 -27,60 -60,60 h -88 c -33,0 -60,-27 -60,-60 v -88 c 0,-33 27,-60 60,-60 h 88 c 33,0 60,27 60,60 z"
     id="path3869"
     inkscape:connector-curvature="0"
     style="fill:none;stroke:#231f20;stroke-width:8;stroke-miterlimit:10" /></g><path
   class="st0"
   d="m 145.81077,117.95263 -9.82066,-9.73356 c 5.78203,-8.299194 9.17618,-18.356913 9.17618,-29.203531 h -0.0425 c 0,-26.683845 -20.44403,-48.631435 -46.643057,-51.270654 v 22.297574 c 14.794177,2.646869 25.779347,16.15183 24.252077,31.889609 -0.35119,3.621276 -1.3922,7.060867 -2.97929,10.193506 L 108.3246,80.797969 92.496155,96.486023 102.92753,106.82488 c -2.16018,0.75064 -4.428416,1.26223 -6.772869,1.48886 C 80.317539,109.84468 66.714883,99.03918 63.969075,84.446976 H 41.45846 c 2.74002,25.886344 24.84542,46.062984 51.710158,46.062984 v 0.0421 c 9.662432,0 18.702572,-2.62487 26.451802,-7.18231 l 10.36191,10.27001 z"
   id="path3796-1"
   inkscape:connector-curvature="0"
   style="fill:#231f20;stroke-width:0.96050775" /></svg>